<?xml version="1.0" standalone="no"?>
<!DOCTYPE svg PUBLIC "-//W3C//DTD SVG 20010904//EN"
 "http://www.w3.org/TR/2001/REC-SVG-20010904/DTD/svg10.dtd">
<svg version="1.0" xmlns="http://www.w3.org/2000/svg"
 width="88.000000pt" height="88.000000pt" viewBox="0 0 88.000000 88.000000"
 preserveAspectRatio="xMidYMid meet">
<metadata>
Created by potrace 1.14, written by Peter Selinger 2001-2017
</metadata>
<g transform="translate(0.000000,88.000000) scale(0.100000,-0.100000)"
fill="#000000" stroke="none">
<path d="M472 720 c-38 -23 -62 -71 -55 -111 4 -25 1 -27 -43 -34 -61 -9 -79
-17 -206 -93 -103 -61 -168 -118 -168 -146 0 -33 48 -45 127 -31 l41 7 18 -51
c14 -38 25 -53 46 -60 16 -6 28 -8 28 -5 0 3 8 0 18 -5 24 -13 96 21 145 67
20 20 37 34 38 32 0 -3 2 -28 2 -56 3 -76 27 -97 82 -72 43 20 66 69 63 135
-3 90 14 114 148 210 103 72 135 116 117 156 -22 48 -102 35 -136 -22 -9 -16
-30 -34 -47 -39 -31 -11 -34 -8 -31 29 2 22 -40 82 -69 96 -36 18 -80 16 -118
-7z"/>
</g>
</svg>
